solid OpenSCAD_Model
  facet normal -1 0 0
    outer loop
      vertex 0 0 0
      vertex 0 40 20
      vertex 0 40 0
    endloop
  endfacet
  facet normal -1 -0 0
    outer loop
      vertex 0 40 20
      vertex 0 0 0
      vertex 0 0 20
    endloop
  endfacet
  facet normal 0 0 1
    outer loop
      vertex 78.5 8.6 20
      vertex 85 40 20
      vertex 78.5 33.1 20
    endloop
  endfacet
  facet normal 0 0 1
    outer loop
      vertex 85 40 20
      vertex 6.5 33.1 20
      vertex 78.5 33.1 20
    endloop
  endfacet
  facet normal 0 0 1
    outer loop
      vertex 6.5 33.1 20
      vertex 0 40 20
      vertex 6.5 8.6 20
    endloop
  endfacet
  facet normal -0 0 1
    outer loop
      vertex 0 40 20
      vertex 6.5 33.1 20
      vertex 85 40 20
    endloop
  endfacet
  facet normal 0 0 1
    outer loop
      vertex 85 40 20
      vertex 78.5 8.6 20
      vertex 85 0 20
    endloop
  endfacet
  facet normal -0 0 1
    outer loop
      vertex 6.5 8.6 20
      vertex 85 0 20
      vertex 78.5 8.6 20
    endloop
  endfacet
  facet normal 0 0 1
    outer loop
      vertex 6.5 8.6 20
      vertex 0 0 20
      vertex 85 0 20
    endloop
  endfacet
  facet normal 0 0 1
    outer loop
      vertex 0 0 20
      vertex 6.5 8.6 20
      vertex 0 40 20
    endloop
  endfacet
  facet normal 1 -0 0
    outer loop
      vertex 85 0 20
      vertex 85 40 0
      vertex 85 40 20
    endloop
  endfacet
  facet normal 1 0 0
    outer loop
      vertex 85 40 0
      vertex 85 0 20
      vertex 85 0 0
    endloop
  endfacet
  facet normal 0 0 -1
    outer loop
      vertex 85 0 0
      vertex 83 2 0
      vertex 85 40 0
    endloop
  endfacet
  facet normal 0 0 -1
    outer loop
      vertex 85 0 0
      vertex 2 2 0
      vertex 83 2 0
    endloop
  endfacet
  facet normal 0 0 -1
    outer loop
      vertex 0 40 0
      vertex 2 2 0
      vertex 0 0 0
    endloop
  endfacet
  facet normal 0 0 -1
    outer loop
      vertex 0 0 0
      vertex 2 2 0
      vertex 85 0 0
    endloop
  endfacet
  facet normal 0 0 -1
    outer loop
      vertex 83 38.5 0
      vertex 85 40 0
      vertex 83 2 0
    endloop
  endfacet
  facet normal 0 0 -1
    outer loop
      vertex 2 38.5 0
      vertex 85 40 0
      vertex 83 38.5 0
    endloop
  endfacet
  facet normal 0 0 -1
    outer loop
      vertex 2 38.5 0
      vertex 0 40 0
      vertex 85 40 0
    endloop
  endfacet
  facet normal 0 0 -1
    outer loop
      vertex 2 2 0
      vertex 0 40 0
      vertex 2 38.5 0
    endloop
  endfacet
  facet normal 0 -1 0
    outer loop
      vertex 0 0 0
      vertex 85 0 20
      vertex 0 0 20
    endloop
  endfacet
  facet normal 0 -1 -0
    outer loop
      vertex 85 0 20
      vertex 0 0 0
      vertex 85 0 0
    endloop
  endfacet
  facet normal 0 1 -0
    outer loop
      vertex 85 40 0
      vertex 0 40 20
      vertex 85 40 20
    endloop
  endfacet
  facet normal 0 1 0
    outer loop
      vertex 0 40 20
      vertex 85 40 0
      vertex 0 40 0
    endloop
  endfacet
  facet normal 1 -0 0
    outer loop
      vertex 6.5 8.6 20
      vertex 6.5 33.1 16.5
      vertex 6.5 33.1 20
    endloop
  endfacet
  facet normal 1 0 0
    outer loop
      vertex 6.5 33.1 16.5
      vertex 6.5 8.6 20
      vertex 6.5 8.6 16.5
    endloop
  endfacet
  facet normal -1 0 0
    outer loop
      vertex 78.5 8.6 16.5
      vertex 78.5 33.1 20
      vertex 78.5 33.1 16.5
    endloop
  endfacet
  facet normal -1 -0 0
    outer loop
      vertex 78.5 33.1 20
      vertex 78.5 8.6 16.5
      vertex 78.5 8.6 20
    endloop
  endfacet
  facet normal 0 -1 0
    outer loop
      vertex 6.5 33.1 16.5
      vertex 78.5 33.1 20
      vertex 6.5 33.1 20
    endloop
  endfacet
  facet normal 0 -1 -0
    outer loop
      vertex 78.5 33.1 20
      vertex 6.5 33.1 16.5
      vertex 78.5 33.1 16.5
    endloop
  endfacet
  facet normal 0 1 -0
    outer loop
      vertex 78.5 8.6 16.5
      vertex 6.5 8.6 20
      vertex 78.5 8.6 20
    endloop
  endfacet
  facet normal 0 1 0
    outer loop
      vertex 6.5 8.6 20
      vertex 78.5 8.6 16.5
      vertex 6.5 8.6 16.5
    endloop
  endfacet
  facet normal 1 -0 0
    outer loop
      vertex 2 2 16.5
      vertex 2 38.5 0
      vertex 2 38.5 16.5
    endloop
  endfacet
  facet normal 1 0 0
    outer loop
      vertex 2 38.5 0
      vertex 2 2 16.5
      vertex 2 2 0
    endloop
  endfacet
  facet normal 0 0 -1
    outer loop
      vertex 83 2 16.5
      vertex 78.5 8.6 16.5
      vertex 83 38.5 16.5
    endloop
  endfacet
  facet normal 0 0 -1
    outer loop
      vertex 83 2 16.5
      vertex 6.5 8.6 16.5
      vertex 78.5 8.6 16.5
    endloop
  endfacet
  facet normal 0 0 -1
    outer loop
      vertex 2 38.5 16.5
      vertex 6.5 8.6 16.5
      vertex 2 2 16.5
    endloop
  endfacet
  facet normal 0 0 -1
    outer loop
      vertex 2 2 16.5
      vertex 6.5 8.6 16.5
      vertex 83 2 16.5
    endloop
  endfacet
  facet normal 0 0 -1
    outer loop
      vertex 78.5 33.1 16.5
      vertex 83 38.5 16.5
      vertex 78.5 8.6 16.5
    endloop
  endfacet
  facet normal 0 0 -1
    outer loop
      vertex 6.5 33.1 16.5
      vertex 83 38.5 16.5
      vertex 78.5 33.1 16.5
    endloop
  endfacet
  facet normal 0 0 -1
    outer loop
      vertex 6.5 33.1 16.5
      vertex 2 38.5 16.5
      vertex 83 38.5 16.5
    endloop
  endfacet
  facet normal 0 0 -1
    outer loop
      vertex 6.5 8.6 16.5
      vertex 2 38.5 16.5
      vertex 6.5 33.1 16.5
    endloop
  endfacet
  facet normal -1 0 0
    outer loop
      vertex 83 2 0
      vertex 83 38.5 16.5
      vertex 83 38.5 0
    endloop
  endfacet
  facet normal -1 -0 0
    outer loop
      vertex 83 38.5 16.5
      vertex 83 2 0
      vertex 83 2 16.5
    endloop
  endfacet
  facet normal 0 -1 0
    outer loop
      vertex 2 38.5 0
      vertex 83 38.5 16.5
      vertex 2 38.5 16.5
    endloop
  endfacet
  facet normal 0 -1 -0
    outer loop
      vertex 83 38.5 16.5
      vertex 2 38.5 0
      vertex 83 38.5 0
    endloop
  endfacet
  facet normal 0 1 -0
    outer loop
      vertex 83 2 0
      vertex 2 2 16.5
      vertex 83 2 16.5
    endloop
  endfacet
  facet normal 0 1 0
    outer loop
      vertex 2 2 16.5
      vertex 83 2 0
      vertex 2 2 0
    endloop
  endfacet
endsolid OpenSCAD_Model
